<svg xmlns="http://www.w3.org/2000/svg" width="800" height="400" style="background-color:#141824;font-family:sans-serif;"><text x="20" y="25" fill="#e0e6ed" font-size="16" font-weight="bold">Volume profile, last 70 bars</text><rect x="20" y="259.28812982159496" width="720" height="98.41055126969337" fill="#29b6f6" opacity="0.2"/><text x="25" y="271.28812982159496" fill="#29b6f6" font-size="10" opacity="0.8">Value area 86.10 to 91.31</text><line x1="23.0" y1="94.7" x2="23.0" y2="114.3" stroke="#ef5350" stroke-width="1"/><rect x="20.9" y="94.9" width="4.2" height="5.4" fill="#ef5350"/><line x1="29.0" y1="84.5" x2="29.0" y2="108.2" stroke="#26a69a" stroke-width="1"/><rect x="26.9" y="87.4" width="4.2" height="12.9" fill="#26a69a"/><line x1="35.0" y1="73.6" x2="35.0" y2="108.1" stroke="#ef5350" stroke-width="1"/><rect x="32.9" y="87.4" width="4.2" height="8.5" fill="#ef5350"/><line x1="41.0" y1="88.1" x2="41.0" y2="101.6" stroke="#ef5350" stroke-width="1"/><rect x="38.9" y="95.9" width="4.2" height="4.2" fill="#ef5350"/><line x1="47.0" y1="99.6" x2="47.0" y2="109.4" stroke="#ef5350" stroke-width="1"/><rect x="44.9" y="100.1" width="4.2" height="1.6" fill="#ef5350"/><line x1="53.0" y1="92.8" x2="53.0" y2="105.1" stroke="#26a69a" stroke-width="1"/><rect x="50.9" y="95.1" width="4.2" height="6.6" fill="#26a69a"/><line x1="59.0" y1="91.3" x2="59.0" y2="111.7" stroke="#ef5350" stroke-width="1"/><rect x="56.9" y="95.1" width="4.2" height="15.5" fill="#ef5350"/><line x1="65.0" y1="81.2" x2="65.0" y2="113.3" stroke="#26a69a" stroke-width="1"/><rect x="62.9" y="91.2" width="4.2" height="19.4" fill="#26a69a"/><line x1="71.0" y1="58.6" x2="71.0" y2="96.0" stroke="#26a69a" stroke-width="1"/><rect x="68.9" y="67.8" width="4.2" height="23.4" fill="#26a69a"/><line x1="77.0" y1="63.4" x2="77.0" y2="71.1" stroke="#26a69a" stroke-width="1"/><rect x="74.9" y="67.5" width="4.2" height="1.0" fill="#26a69a"/><line x1="83.0" y1="45.3" x2="83.0" y2="72.5" stroke="#26a69a" stroke-width="1"/><rect x="80.9" y="48.7" width="4.2" height="18.8" fill="#26a69a"/><line x1="89.0" y1="45.0" x2="89.0" y2="59.2" stroke="#ef5350" stroke-width="1"/><rect x="86.9" y="48.7" width="4.2" height="1.5" fill="#ef5350"/><line x1="95.0" y1="40.0" x2="95.0" y2="88.5" stroke="#ef5350" stroke-width="1"/><rect x="92.9" y="50.2" width="4.2" height="37.9" fill="#ef5350"/><line x1="101.0" y1="84.6" x2="101.0" y2="98.3" stroke="#ef5350" stroke-width="1"/><rect x="98.9" y="88.1" width="4.2" height="9.4" fill="#ef5350"/><line x1="107.0" y1="87.6" x2="107.0" y2="105.5" stroke="#26a69a" stroke-width="1"/><rect x="104.9" y="96.3" width="4.2" height="1.2" fill="#26a69a"/><line x1="113.0" y1="89.3" x2="113.0" y2="113.4" stroke="#ef5350" stroke-width="1"/><rect x="110.9" y="96.3" width="4.2" height="11.5" fill="#ef5350"/><line x1="119.0" y1="103.4" x2="119.0" y2="142.7" stroke="#ef5350" stroke-width="1"/><rect x="116.9" y="107.8" width="4.2" height="21.8" fill="#ef5350"/><line x1="125.0" y1="126.9" x2="125.0" y2="144.1" stroke="#ef5350" stroke-width="1"/><rect x="122.9" y="129.6" width="4.2" height="4.1" fill="#ef5350"/><line x1="131.0" y1="128.6" x2="131.0" y2="148.5" stroke="#ef5350" stroke-width="1"/><rect x="128.9" y="133.7" width="4.2" height="10.3" fill="#ef5350"/><line x1="137.0" y1="128.1" x2="137.0" y2="154.4" stroke="#26a69a" stroke-width="1"/><rect x="134.9" y="139.3" width="4.2" height="4.7" fill="#26a69a"/><line x1="143.0" y1="109.0" x2="143.0" y2="143.2" stroke="#26a69a" stroke-width="1"/><rect x="140.9" y="115.4" width="4.2" height="23.9" fill="#26a69a"/><line x1="149.0" y1="108.1" x2="149.0" y2="122.4" stroke="#ef5350" stroke-width="1"/><rect x="146.9" y="115.4" width="4.2" height="4.0" fill="#ef5350"/><line x1="155.0" y1="116.5" x2="155.0" y2="135.4" stroke="#ef5350" stroke-width="1"/><rect x="152.9" y="119.5" width="4.2" height="7.2" fill="#ef5350"/><line x1="161.0" y1="91.4" x2="161.0" y2="128.2" stroke="#26a69a" stroke-width="1"/><rect x="158.9" y="99.5" width="4.2" height="27.2" fill="#26a69a"/><line x1="167.0" y1="86.4" x2="167.0" y2="117.2" stroke="#ef5350" stroke-width="1"/><rect x="164.9" y="99.5" width="4.2" height="13.6" fill="#ef5350"/><line x1="173.0" y1="102.4" x2="173.0" y2="116.9" stroke="#26a69a" stroke-width="1"/><rect x="170.9" y="111.8" width="4.2" height="1.3" fill="#26a69a"/><line x1="179.0" y1="110.6" x2="179.0" y2="116.2" stroke="#ef5350" stroke-width="1"/><rect x="176.9" y="111.8" width="4.2" height="3.5" fill="#ef5350"/><line x1="185.0" y1="85.3" x2="185.0" y2="118.8" stroke="#26a69a" stroke-width="1"/><rect x="182.9" y="91.1" width="4.2" height="24.1" fill="#26a69a"/><line x1="191.0" y1="91.0" x2="191.0" y2="118.4" stroke="#ef5350" stroke-width="1"/><rect x="188.9" y="91.1" width="4.2" height="14.5" fill="#ef5350"/><line x1="197.0" y1="88.2" x2="197.0" y2="118.1" stroke="#26a69a" stroke-width="1"/><rect x="194.9" y="97.0" width="4.2" height="8.6" fill="#26a69a"/><line x1="203.0" y1="93.1" x2="203.0" y2="108.5" stroke="#26a69a" stroke-width="1"/><rect x="200.9" y="94.0" width="4.2" height="3.0" fill="#26a69a"/><line x1="209.0" y1="79.0" x2="209.0" y2="110.9" stroke="#ef5350" stroke-width="1"/><rect x="206.9" y="94.0" width="4.2" height="15.9" fill="#ef5350"/><line x1="215.0" y1="99.6" x2="215.0" y2="131.3" stroke="#ef5350" stroke-width="1"/><rect x="212.9" y="110.0" width="4.2" height="6.4" fill="#ef5350"/><line x1="221.0" y1="104.7" x2="221.0" y2="154.0" stroke="#ef5350" stroke-width="1"/><rect x="218.9" y="116.3" width="4.2" height="27.7" fill="#ef5350"/><line x1="227.0" y1="134.2" x2="227.0" y2="154.5" stroke="#26a69a" stroke-width="1"/><rect x="224.9" y="138.5" width="4.2" height="5.5" fill="#26a69a"/><line x1="233.0" y1="126.2" x2="233.0" y2="146.5" stroke="#ef5350" stroke-width="1"/><rect x="230.9" y="138.5" width="4.2" height="1.7" fill="#ef5350"/><line x1="239.0" y1="126.5" x2="239.0" y2="158.5" stroke="#ef5350" stroke-width="1"/><rect x="236.9" y="140.1" width="4.2" height="18.2" fill="#ef5350"/><line x1="245.0" y1="116.7" x2="245.0" y2="172.5" stroke="#26a69a" stroke-width="1"/><rect x="242.9" y="124.9" width="4.2" height="33.3" fill="#26a69a"/><line x1="251.0" y1="121.0" x2="251.0" y2="148.9" stroke="#ef5350" stroke-width="1"/><rect x="248.9" y="124.9" width="4.2" height="12.8" fill="#ef5350"/><line x1="257.0" y1="125.1" x2="257.0" y2="145.0" stroke="#26a69a" stroke-width="1"/><rect x="254.9" y="127.2" width="4.2" height="10.5" fill="#26a69a"/><line x1="263.0" y1="123.3" x2="263.0" y2="145.0" stroke="#ef5350" stroke-width="1"/><rect x="260.9" y="127.2" width="4.2" height="15.3" fill="#ef5350"/><line x1="269.0" y1="136.8" x2="269.0" y2="154.7" stroke="#ef5350" stroke-width="1"/><rect x="266.9" y="142.5" width="4.2" height="5.9" fill="#ef5350"/><line x1="275.0" y1="144.8" x2="275.0" y2="154.9" stroke="#ef5350" stroke-width="1"/><rect x="272.9" y="148.3" width="4.2" height="1.0" fill="#ef5350"/><line x1="281.0" y1="142.7" x2="281.0" y2="158.1" stroke="#26a69a" stroke-width="1"/><rect x="278.9" y="147.9" width="4.2" height="1.2" fill="#26a69a"/><line x1="287.0" y1="141.2" x2="287.0" y2="173.8" stroke="#ef5350" stroke-width="1"/><rect x="284.9" y="147.9" width="4.2" height="25.7" fill="#ef5350"/><line x1="293.0" y1="151.1" x2="293.0" y2="179.8" stroke="#26a69a" stroke-width="1"/><rect x="290.9" y="162.2" width="4.2" height="11.5" fill="#26a69a"/><line x1="299.0" y1="152.3" x2="299.0" y2="163.9" stroke="#26a69a" stroke-width="1"/><rect x="296.9" y="157.9" width="4.2" height="4.3" fill="#26a69a"/><line x1="305.0" y1="136.5" x2="305.0" y2="163.8" stroke="#26a69a" stroke-width="1"/><rect x="302.9" y="151.2" width="4.2" height="6.7" fill="#26a69a"/><line x1="311.0" y1="150.7" x2="311.0" y2="198.8" stroke="#ef5350" stroke-width="1"/><rect x="308.9" y="151.2" width="4.2" height="37.9" fill="#ef5350"/><line x1="317.0" y1="187.7" x2="317.0" y2="217.7" stroke="#ef5350" stroke-width="1"/><rect x="314.9" y="189.1" width="4.2" height="15.2" fill="#ef5350"/><line x1="323.0" y1="190.5" x2="323.0" y2="207.0" stroke="#26a69a" stroke-width="1"/><rect x="320.9" y="196.1" width="4.2" height="8.2" fill="#26a69a"/><line x1="329.0" y1="185.5" x2="329.0" y2="229.9" stroke="#ef5350" stroke-width="1"/><rect x="326.9" y="196.1" width="4.2" height="22.1" fill="#ef5350"/><line x1="335.0" y1="218.0" x2="335.0" y2="223.9" stroke="#ef5350" stroke-width="1"/><rect x="332.9" y="218.2" width="4.2" height="2.6" fill="#ef5350"/><line x1="341.0" y1="212.2" x2="341.0" y2="240.2" stroke="#ef5350" stroke-width="1"/><rect x="338.9" y="220.8" width="4.2" height="8.6" fill="#ef5350"/><line x1="347.0" y1="225.0" x2="347.0" y2="245.0" stroke="#ef5350" stroke-width="1"/><rect x="344.9" y="229.4" width="4.2" height="10.3" fill="#ef5350"/><line x1="353.0" y1="231.8" x2="353.0" y2="271.4" stroke="#ef5350" stroke-width="1"/><rect x="350.9" y="239.7" width="4.2" height="17.1" fill="#ef5350"/><line x1="359.0" y1="237.4" x2="359.0" y2="269.3" stroke="#26a69a" stroke-width="1"/><rect x="356.9" y="241.2" width="4.2" height="15.7" fill="#26a69a"/><line x1="365.0" y1="223.9" x2="365.0" y2="251.3" stroke="#26a69a" stroke-width="1"/><rect x="362.9" y="226.2" width="4.2" height="15.0" fill="#26a69a"/><line x1="371.0" y1="216.8" x2="371.0" y2="230.6" stroke="#26a69a" stroke-width="1"/><rect x="368.9" y="222.7" width="4.2" height="3.5" fill="#26a69a"/><line x1="377.0" y1="220.8" x2="377.0" y2="248.0" stroke="#ef5350" stroke-width="1"/><rect x="374.9" y="222.7" width="4.2" height="20.6" fill="#ef5350"/><line x1="383.0" y1="239.1" x2="383.0" y2="272.3" stroke="#ef5350" stroke-width="1"/><rect x="380.9" y="243.3" width="4.2" height="14.8" fill="#ef5350"/><line x1="389.0" y1="252.9" x2="389.0" y2="299.2" stroke="#ef5350" stroke-width="1"/><rect x="386.9" y="258.1" width="4.2" height="36.9" fill="#ef5350"/><line x1="395.0" y1="284.6" x2="395.0" y2="303.8" stroke="#26a69a" stroke-width="1"/><rect x="392.9" y="287.3" width="4.2" height="7.7" fill="#26a69a"/><line x1="401.0" y1="283.4" x2="401.0" y2="294.4" stroke="#ef5350" stroke-width="1"/><rect x="398.9" y="287.3" width="4.2" height="2.5" fill="#ef5350"/><line x1="407.0" y1="274.6" x2="407.0" y2="300.7" stroke="#26a69a" stroke-width="1"/><rect x="404.9" y="286.1" width="4.2" height="3.8" fill="#26a69a"/><line x1="413.0" y1="276.8" x2="413.0" y2="315.5" stroke="#ef5350" stroke-width="1"/><rect x="410.9" y="286.1" width="4.2" height="19.2" fill="#ef5350"/><line x1="419.0" y1="270.8" x2="419.0" y2="310.0" stroke="#26a69a" stroke-width="1"/><rect x="416.9" y="282.9" width="4.2" height="22.4" fill="#26a69a"/><line x1="425.0" y1="277.3" x2="425.0" y2="301.0" stroke="#ef5350" stroke-width="1"/><rect x="422.9" y="282.9" width="4.2" height="12.3" fill="#ef5350"/><line x1="431.0" y1="271.5" x2="431.0" y2="298.4" stroke="#26a69a" stroke-width="1"/><rect x="428.9" y="275.3" width="4.2" height="19.9" fill="#26a69a"/><line x1="437.0" y1="266.8" x2="437.0" y2="302.7" stroke="#ef5350" stroke-width="1"/><rect x="434.9" y="275.3" width="4.2" height="13.0" fill="#ef5350"/><line x1="443.0" y1="282.2" x2="443.0" y2="316.9" stroke="#ef5350" stroke-width="1"/><rect x="440.9" y="288.4" width="4.2" height="13.8" fill="#ef5350"/><line x1="449.0" y1="295.8" x2="449.0" y2="302.9" stroke="#26a69a" stroke-width="1"/><rect x="446.9" y="297.4" width="4.2" height="4.8" fill="#26a69a"/><line x1="455.0" y1="275.5" x2="455.0" y2="306.5" stroke="#26a69a" stroke-width="1"/><rect x="452.9" y="277.0" width="4.2" height="20.4" fill="#26a69a"/><line x1="461.0" y1="251.2" x2="461.0" y2="290.8" stroke="#26a69a" stroke-width="1"/><rect x="458.9" y="259.6" width="4.2" height="17.4" fill="#26a69a"/><line x1="467.0" y1="246.3" x2="467.0" y2="277.6" stroke="#ef5350" stroke-width="1"/><rect x="464.9" y="259.6" width="4.2" height="10.6" fill="#ef5350"/><line x1="473.0" y1="251.2" x2="473.0" y2="276.4" stroke="#26a69a" stroke-width="1"/><rect x="470.9" y="266.0" width="4.2" height="4.2" fill="#26a69a"/><line x1="479.0" y1="257.4" x2="479.0" y2="284.0" stroke="#ef5350" stroke-width="1"/><rect x="476.9" y="266.0" width="4.2" height="9.2" fill="#ef5350"/><line x1="485.0" y1="271.8" x2="485.0" y2="322.9" stroke="#ef5350" stroke-width="1"/><rect x="482.9" y="275.3" width="4.2" height="41.4" fill="#ef5350"/><line x1="491.0" y1="302.8" x2="491.0" y2="337.3" stroke="#ef5350" stroke-width="1"/><rect x="488.9" y="316.7" width="4.2" height="16.9" fill="#ef5350"/><line x1="497.0" y1="312.8" x2="497.0" y2="344.2" stroke="#26a69a" stroke-width="1"/><rect x="494.9" y="324.7" width="4.2" height="8.9" fill="#26a69a"/><line x1="503.0" y1="310.0" x2="503.0" y2="344.2" stroke="#ef5350" stroke-width="1"/><rect x="500.9" y="324.7" width="4.2" height="6.4" fill="#ef5350"/><line x1="509.0" y1="311.3" x2="509.0" y2="340.2" stroke="#26a69a" stroke-width="1"/><rect x="506.9" y="317.5" width="4.2" height="13.5" fill="#26a69a"/><line x1="515.0" y1="297.1" x2="515.0" y2="322.5" stroke="#26a69a" stroke-width="1"/><rect x="512.9" y="300.3" width="4.2" height="17.1" fill="#26a69a"/><line x1="521.0" y1="289.7" x2="521.0" y2="328.7" stroke="#ef5350" stroke-width="1"/><rect x="518.9" y="300.3" width="4.2" height="28.2" fill="#ef5350"/><line x1="527.0" y1="306.9" x2="527.0" y2="337.9" stroke="#26a69a" stroke-width="1"/><rect x="524.9" y="319.3" width="4.2" height="9.2" fill="#26a69a"/><line x1="533.0" y1="314.3" x2="533.0" y2="332.4" stroke="#ef5350" stroke-width="1"/><rect x="530.9" y="319.3" width="4.2" height="2.3" fill="#ef5350"/><line x1="539.0" y1="312.1" x2="539.0" y2="340.2" stroke="#ef5350" stroke-width="1"/><rect x="536.9" y="321.6" width="4.2" height="14.2" fill="#ef5350"/><line x1="545.0" y1="333.8" x2="545.0" y2="363.9" stroke="#ef5350" stroke-width="1"/><rect x="542.9" y="335.8" width="4.2" height="18.8" fill="#ef5350"/><line x1="551.0" y1="334.2" x2="551.0" y2="366.9" stroke="#26a69a" stroke-width="1"/><rect x="548.9" y="339.9" width="4.2" height="14.7" fill="#26a69a"/><line x1="557.0" y1="334.2" x2="557.0" y2="366.0" stroke="#ef5350" stroke-width="1"/><rect x="554.9" y="339.9" width="4.2" height="15.4" fill="#ef5350"/><line x1="563.0" y1="342.5" x2="563.0" y2="370.0" stroke="#ef5350" stroke-width="1"/><rect x="560.9" y="355.3" width="4.2" height="2.4" fill="#ef5350"/><line x1="569.0" y1="346.4" x2="569.0" y2="369.2" stroke="#26a69a" stroke-width="1"/><rect x="566.9" y="352.6" width="4.2" height="5.1" fill="#26a69a"/><line x1="575.0" y1="348.7" x2="575.0" y2="360.7" stroke="#26a69a" stroke-width="1"/><rect x="572.9" y="348.8" width="4.2" height="3.8" fill="#26a69a"/><line x1="581.0" y1="336.7" x2="581.0" y2="366.6" stroke="#ef5350" stroke-width="1"/><rect x="578.9" y="348.8" width="4.2" height="7.8" fill="#ef5350"/><line x1="587.0" y1="332.6" x2="587.0" y2="369.8" stroke="#26a69a" stroke-width="1"/><rect x="584.9" y="343.0" width="4.2" height="13.5" fill="#26a69a"/><line x1="593.0" y1="334.1" x2="593.0" y2="347.5" stroke="#26a69a" stroke-width="1"/><rect x="590.9" y="341.3" width="4.2" height="1.7" fill="#26a69a"/><line x1="599.0" y1="328.8" x2="599.0" y2="351.0" stroke="#26a69a" stroke-width="1"/><rect x="596.9" y="335.0" width="4.2" height="6.3" fill="#26a69a"/><line x1="605.0" y1="304.9" x2="605.0" y2="348.0" stroke="#26a69a" stroke-width="1"/><rect x="602.9" y="315.3" width="4.2" height="19.7" fill="#26a69a"/><line x1="611.0" y1="286.4" x2="611.0" y2="318.1" stroke="#26a69a" stroke-width="1"/><rect x="608.9" y="287.8" width="4.2" height="27.4" fill="#26a69a"/><line x1="617.0" y1="263.6" x2="617.0" y2="292.8" stroke="#26a69a" stroke-width="1"/><rect x="614.9" y="276.9" width="4.2" height="11.0" fill="#26a69a"/><line x1="623.0" y1="266.2" x2="623.0" y2="303.9" stroke="#ef5350" stroke-width="1"/><rect x="620.9" y="276.9" width="4.2" height="22.6" fill="#ef5350"/><line x1="629.0" y1="294.0" x2="629.0" y2="305.6" stroke="#ef5350" stroke-width="1"/><rect x="626.9" y="299.4" width="4.2" height="5.8" fill="#ef5350"/><line x1="635.0" y1="301.1" x2="635.0" y2="320.2" stroke="#ef5350" stroke-width="1"/><rect x="632.9" y="305.3" width="4.2" height="5.1" fill="#ef5350"/><line x1="641.0" y1="282.5" x2="641.0" y2="324.7" stroke="#26a69a" stroke-width="1"/><rect x="638.9" y="290.7" width="4.2" height="19.7" fill="#26a69a"/><line x1="647.0" y1="277.8" x2="647.0" y2="313.4" stroke="#ef5350" stroke-width="1"/><rect x="644.9" y="290.7" width="4.2" height="15.2" fill="#ef5350"/><line x1="653.0" y1="291.6" x2="653.0" y2="318.6" stroke="#26a69a" stroke-width="1"/><rect x="650.9" y="299.4" width="4.2" height="6.5" fill="#26a69a"/><line x1="659.0" y1="293.0" x2="659.0" y2="319.0" stroke="#ef5350" stroke-width="1"/><rect x="656.9" y="299.4" width="4.2" height="4.9" fill="#ef5350"/><line x1="665.0" y1="275.7" x2="665.0" y2="318.7" stroke="#26a69a" stroke-width="1"/><rect x="662.9" y="284.4" width="4.2" height="19.9" fill="#26a69a"/><line x1="671.0" y1="277.2" x2="671.0" y2="297.5" stroke="#26a69a" stroke-width="1"/><rect x="668.9" y="278.1" width="4.2" height="6.2" fill="#26a69a"/><line x1="677.0" y1="268.7" x2="677.0" y2="290.7" stroke="#26a69a" stroke-width="1"/><rect x="674.9" y="276.7" width="4.2" height="1.5" fill="#26a69a"/><line x1="683.0" y1="274.5" x2="683.0" y2="312.1" stroke="#ef5350" stroke-width="1"/><rect x="680.9" y="276.7" width="4.2" height="30.5" fill="#ef5350"/><line x1="689.0" y1="298.2" x2="689.0" y2="310.0" stroke="#ef5350" stroke-width="1"/><rect x="686.9" y="307.2" width="4.2" height="2.2" fill="#ef5350"/><line x1="695.0" y1="265.1" x2="695.0" y2="317.2" stroke="#26a69a" stroke-width="1"/><rect x="692.9" y="269.2" width="4.2" height="40.2" fill="#26a69a"/><line x1="701.0" y1="254.8" x2="701.0" y2="280.7" stroke="#ef5350" stroke-width="1"/><rect x="698.9" y="269.2" width="4.2" height="2.8" fill="#ef5350"/><line x1="707.0" y1="235.4" x2="707.0" y2="280.7" stroke="#26a69a" stroke-width="1"/><rect x="704.9" y="246.8" width="4.2" height="25.2" fill="#26a69a"/><line x1="713.0" y1="228.9" x2="713.0" y2="248.1" stroke="#26a69a" stroke-width="1"/><rect x="710.9" y="242.1" width="4.2" height="4.7" fill="#26a69a"/><line x1="719.0" y1="233.3" x2="719.0" y2="245.3" stroke="#26a69a" stroke-width="1"/><rect x="716.9" y="241.9" width="4.2" height="1.0" fill="#26a69a"/><line x1="725.0" y1="217.0" x2="725.0" y2="243.2" stroke="#26a69a" stroke-width="1"/><rect x="722.9" y="217.9" width="4.2" height="24.0" fill="#26a69a"/><line x1="731.0" y1="206.4" x2="731.0" y2="232.9" stroke="#ef5350" stroke-width="1"/><rect x="728.9" y="217.9" width="4.2" height="3.9" fill="#ef5350"/><line x1="737.0" y1="196.2" x2="737.0" y2="224.9" stroke="#26a69a" stroke-width="1"/><rect x="734.9" y="198.2" width="4.2" height="23.7" fill="#26a69a"/><polyline points="322.5,293.1 740.0,293.1" fill="none" stroke="#ffb74d" stroke-width="1.5"/></svg>
